<svg version="1.0" xmlns="http://www.w3.org/2000/svg"
 width="192.000000pt" height="192.000000pt" viewBox="0 0 192.000000 192.000000"
 preserveAspectRatio="xMidYMid meet">

<g transform="translate(0.000000,192.000000) scale(0.100000,-0.100000)"
fill="#000000" stroke="none">
<path d="M808 1905 c-423 -71 -739 -400 -797 -828 -19 -137 -19 -136 85 -81
96 51 198 122 284 198 82 73 174 125 264 151 103 30 196 6 196 -50 0 -26 -61
-121 -118 -186 -98 -110 -286 -235 -396 -264 -32 -8 -61 -17 -63 -19 -2 -2 -1
-20 2 -39 19 -98 86 -140 230 -141 81 -1 96 2 155 30 36 18 90 50 120 73 77
58 275 255 323 321 107 147 252 250 399 285 115 27 178 16 178 -30 0 -33 -15
-40 -91 -40 -55 0 -77 -6 -140 -37 -169 -84 -305 -242 -339 -393 -27 -121 38
-194 187 -211 74 -8 105 5 328 133 77 44 177 99 223 122 93 47 90 39 71 178
-37 276 -187 522 -409 673 -205 139 -455 195 -692 155z"/>
<path d="M639 1261 c-73 -29 -153 -87 -226 -165 -72 -77 -134 -176 -111 -176
20 0 133 56 186 92 93 63 242 221 242 257 0 16 -39 13 -91 -8z"/>
<path d="M110 909 c-41 -21 -81 -39 -89 -39 -31 0 20 -206 84 -335 161 -326
487 -528 855 -528 352 0 665 184 836 490 61 108 129 333 101 333 -17 0 -133
-67 -251 -145 -170 -112 -190 -120 -321 -120 -126 0 -189 17 -248 66 -51 42
-77 96 -77 159 l0 50 -82 -71 c-100 -86 -161 -127 -253 -171 -65 -31 -77 -33
-170 -33 -114 1 -162 12 -227 55 -86 57 -119 168 -84 283 8 26 11 47 8 46 -4
0 -41 -18 -82 -40z"/>
</g>
</svg>
